<svg xmlns="http://www.w3.org/2000/svg" version="1.1" xmlns:xlink="http://www.w3.org/1999/xlink" xmlns:svgjs="http://svgjs.dev/svgjs" width="1000" height="999" viewBox="0 0 1000 999"><g transform="matrix(1,0,0,1,-0.215743440233382,-0.21552769679306039)"><svg viewBox="0 0 343 343" data-background-color="#282634" preserveAspectRatio="xMidYMid meet" height="999" width="1000" xmlns="http://www.w3.org/2000/svg" xmlns:xlink="http://www.w3.org/1999/xlink"><g id="tight-bounds" transform="matrix(1,0,0,1,0.0740000000000407,0.07400000000001228)"><svg viewBox="0 0 342.85155851775386 342.85155851775386" height="342.85155851775386" width="342.85155851775386"><g><svg></svg></g><g><svg viewBox="0 0 342.85155851775386 342.85155851775386" height="342.85155851775386" width="342.85155851775386"><g><path d="M0 171.426c0-94.676 76.75-171.426 171.426-171.426 94.676 0 171.426 76.75 171.426 171.426 0 94.676-76.75 171.426-171.426 171.426-94.676 0-171.426-76.75-171.426-171.426zM171.426 331.744c88.541 0 160.318-71.777 160.318-160.318 0-88.541-71.777-160.318-160.318-160.318-88.541 0-160.318 71.777-160.318 160.318 0 88.541 71.777 160.318 160.318 160.318z" data-fill-palette-color="tertiary" fill="#000000" stroke="transparent"></path><ellipse rx="164.56874808852186" ry="164.56874808852186" cx="171.42577925887693" cy="171.42577925887693" fill="#000000" stroke="transparent" stroke-width="0" fill-opacity="1" data-fill-palette-color="tertiary"></ellipse></g><g transform="matrix(1,0,0,1,64.84655864529837,109.83907071812528)"><svg viewBox="0 0 213.1584412271571 123.17341708150329" height="123.17341708150329" width="213.1584412271571"><g><svg viewBox="0 0 213.1584412271571 123.17341708150329" height="123.17341708150329" width="213.1584412271571"><g><svg viewBox="0 0 213.1584412271571 123.17341708150329" height="123.17341708150329" width="213.1584412271571"><g><svg viewBox="0 0 213.1584412271571 123.17341708150329" height="123.17341708150329" width="213.1584412271571"><g><svg viewBox="0 0 213.1584412271571 123.17341708150329" height="123.17341708150329" width="213.1584412271571"><g><svg viewBox="0 0 213.1584412271571 123.17341708150329" height="123.17341708150329" width="213.1584412271571"><g transform="matrix(1,0,0,1,0,0)"><svg width="213.1584412271571" viewBox="1.9500000476837158 -35.75 62.29999923706055 36" height="123.17341708150329" data-palette-color="#ffffff"><path d="M18.5 0.25L18.5 0.25Q15 0.25 11.98-1.28 8.95-2.8 6.7-5.38 4.45-7.95 3.2-11.18 1.95-14.4 1.95-17.85L1.95-17.85Q1.95-21.45 3.2-24.68 4.45-27.9 6.68-30.4 8.9-32.9 11.93-34.33 14.95-35.75 18.5-35.75L18.5-35.75Q23.65-35.75 27-33.6 30.35-31.45 32.05-28L32.05-28 28.6-25.6Q27.05-28.7 24.35-30.2 21.65-31.7 18.4-31.7L18.4-31.7Q15.7-31.7 13.5-30.55 11.3-29.4 9.73-27.43 8.15-25.45 7.33-22.95 6.5-20.45 6.5-17.75L6.5-17.75Q6.5-14.9 7.43-12.38 8.35-9.85 10.05-7.93 11.75-6 14-4.9 16.25-3.8 18.85-3.8L18.85-3.8Q21.9-3.8 24.65-5.35 27.4-6.9 29.85-10.1L29.85-10.1 29.85-5.45Q25.05 0.25 18.5 0.25ZM29.3 0L29.3-14.3 21.65-14.3 21.65-17.7 33.1-17.7 33.1 0 29.3 0ZM64.25 0L39.95 0 39.95-35.5 44.45-35.5 44.45-4 64.25-4 64.25 0Z" opacity="1" transform="matrix(1,0,0,1,0,0)" fill="#ffffff" class="undefined-text-0" data-fill-palette-color="quaternary" id="text-0"></path></svg></g></svg></g></svg></g></svg></g><g></g></svg></g></svg></g></svg></g></svg></g><defs></defs></svg><rect width="342.85155851775386" height="342.85155851775386" fill="none" stroke="none" visibility="hidden"></rect></g></svg></g></svg>